<mxfile host="Electron" agent="Mozilla/5.0 (Windows NT 10.0; Win64; x64) AppleWebKit/537.36 (KHTML, like Gecko) draw.io/24.7.5 Chrome/126.0.6478.183 Electron/31.3.0 Safari/537.36" version="24.7.5">
  <diagram name="第 1 页" id="o_sHzlwDGB6HFb-b10OY">
    <mxGraphModel dx="1383" dy="797" grid="1" gridSize="10" guides="1" tooltips="1" connect="1" arrows="1" fold="1" page="1" pageScale="1" pageWidth="827" pageHeight="1169" background="none" math="0" shadow="0">
      <root>
        <mxCell id="0" />
        <mxCell id="1" parent="0" />
        <mxCell id="Si_FbXwoeOljD2cDCgw1-118" value="" style="rounded=0;whiteSpace=wrap;html=1;" vertex="1" parent="1">
          <mxGeometry x="80" y="60" width="20" height="100" as="geometry" />
        </mxCell>
        <mxCell id="Si_FbXwoeOljD2cDCgw1-119" value="" style="rounded=0;whiteSpace=wrap;html=1;" vertex="1" parent="1">
          <mxGeometry x="110" y="90" width="20" height="70" as="geometry" />
        </mxCell>
        <mxCell id="Si_FbXwoeOljD2cDCgw1-120" value="" style="rounded=0;whiteSpace=wrap;html=1;" vertex="1" parent="1">
          <mxGeometry x="140" y="120" width="20" height="40" as="geometry" />
        </mxCell>
        <mxCell id="Si_FbXwoeOljD2cDCgw1-121" value="" style="rounded=0;whiteSpace=wrap;html=1;fillColor=#d80073;fontColor=#ffffff;strokeColor=#A50040;" vertex="1" parent="1">
          <mxGeometry x="170" y="140" width="20" height="20" as="geometry" />
        </mxCell>
        <mxCell id="Si_FbXwoeOljD2cDCgw1-122" value="x" style="rounded=0;whiteSpace=wrap;html=1;fillColor=#d80073;fontColor=#ffffff;strokeColor=#A50040;fontFamily=Comic Sans MS;" vertex="1" parent="1">
          <mxGeometry x="200" y="110" width="20" height="50" as="geometry" />
        </mxCell>
        <mxCell id="Si_FbXwoeOljD2cDCgw1-123" value="" style="rounded=0;whiteSpace=wrap;html=1;fillColor=#d80073;fontColor=#ffffff;strokeColor=#A50040;" vertex="1" parent="1">
          <mxGeometry x="110" y="220" width="20" height="100" as="geometry" />
        </mxCell>
        <mxCell id="Si_FbXwoeOljD2cDCgw1-124" value="" style="rounded=0;whiteSpace=wrap;html=1;" vertex="1" parent="1">
          <mxGeometry x="140" y="250" width="20" height="70" as="geometry" />
        </mxCell>
        <mxCell id="Si_FbXwoeOljD2cDCgw1-125" value="" style="rounded=0;whiteSpace=wrap;html=1;" vertex="1" parent="1">
          <mxGeometry x="170" y="280" width="20" height="40" as="geometry" />
        </mxCell>
        <mxCell id="Si_FbXwoeOljD2cDCgw1-126" value="" style="rounded=0;whiteSpace=wrap;html=1;" vertex="1" parent="1">
          <mxGeometry x="200" y="300" width="20" height="20" as="geometry" />
        </mxCell>
        <mxCell id="Si_FbXwoeOljD2cDCgw1-127" value="x" style="rounded=0;whiteSpace=wrap;html=1;fillColor=#d80073;fontColor=#ffffff;strokeColor=#A50040;fontFamily=Comic Sans MS;" vertex="1" parent="1">
          <mxGeometry x="80" y="270" width="20" height="50" as="geometry" />
        </mxCell>
        <mxCell id="Si_FbXwoeOljD2cDCgw1-133" value="" style="rounded=0;whiteSpace=wrap;html=1;" vertex="1" parent="1">
          <mxGeometry x="80" y="535" width="20" height="100" as="geometry" />
        </mxCell>
        <mxCell id="Si_FbXwoeOljD2cDCgw1-134" value="" style="rounded=0;whiteSpace=wrap;html=1;fillColor=#d80073;fontColor=#ffffff;strokeColor=#A50040;" vertex="1" parent="1">
          <mxGeometry x="140" y="565" width="20" height="70" as="geometry" />
        </mxCell>
        <mxCell id="Si_FbXwoeOljD2cDCgw1-135" value="" style="rounded=0;whiteSpace=wrap;html=1;" vertex="1" parent="1">
          <mxGeometry x="170" y="595" width="20" height="40" as="geometry" />
        </mxCell>
        <mxCell id="Si_FbXwoeOljD2cDCgw1-136" value="" style="rounded=0;whiteSpace=wrap;html=1;" vertex="1" parent="1">
          <mxGeometry x="200" y="615" width="20" height="20" as="geometry" />
        </mxCell>
        <mxCell id="Si_FbXwoeOljD2cDCgw1-137" value="x" style="rounded=0;whiteSpace=wrap;html=1;fillColor=#d80073;fontColor=#ffffff;strokeColor=#A50040;fontFamily=Comic Sans MS;" vertex="1" parent="1">
          <mxGeometry x="110" y="585" width="20" height="50" as="geometry" />
        </mxCell>
        <mxCell id="Si_FbXwoeOljD2cDCgw1-138" value="" style="rounded=0;whiteSpace=wrap;html=1;" vertex="1" parent="1">
          <mxGeometry x="270" y="180" width="20" height="100" as="geometry" />
        </mxCell>
        <mxCell id="Si_FbXwoeOljD2cDCgw1-139" value="" style="rounded=0;whiteSpace=wrap;html=1;" vertex="1" parent="1">
          <mxGeometry x="330" y="210" width="20" height="70" as="geometry" />
        </mxCell>
        <mxCell id="Si_FbXwoeOljD2cDCgw1-140" value="" style="rounded=0;whiteSpace=wrap;html=1;" vertex="1" parent="1">
          <mxGeometry x="360" y="240" width="20" height="40" as="geometry" />
        </mxCell>
        <mxCell id="Si_FbXwoeOljD2cDCgw1-141" value="" style="rounded=0;whiteSpace=wrap;html=1;" vertex="1" parent="1">
          <mxGeometry x="390" y="260" width="20" height="20" as="geometry" />
        </mxCell>
        <mxCell id="Si_FbXwoeOljD2cDCgw1-142" value="x" style="rounded=0;whiteSpace=wrap;html=1;fillColor=#d80073;fontColor=#ffffff;strokeColor=#A50040;fontFamily=Comic Sans MS;" vertex="1" parent="1">
          <mxGeometry x="300" y="200" width="20" height="80" as="geometry" />
        </mxCell>
        <mxCell id="Si_FbXwoeOljD2cDCgw1-143" value="显然S可以更长" style="text;html=1;align=center;verticalAlign=middle;resizable=0;points=[];autosize=1;strokeColor=none;fillColor=none;" vertex="1" parent="1">
          <mxGeometry x="360" y="200" width="100" height="30" as="geometry" />
        </mxCell>
        <mxCell id="Si_FbXwoeOljD2cDCgw1-144" value="" style="rounded=0;whiteSpace=wrap;html=1;fillColor=#d80073;fontColor=#ffffff;strokeColor=#A50040;" vertex="1" parent="1">
          <mxGeometry x="80" y="380" width="20" height="100" as="geometry" />
        </mxCell>
        <mxCell id="Si_FbXwoeOljD2cDCgw1-145" value="" style="rounded=0;whiteSpace=wrap;html=1;" vertex="1" parent="1">
          <mxGeometry x="140" y="410" width="20" height="70" as="geometry" />
        </mxCell>
        <mxCell id="Si_FbXwoeOljD2cDCgw1-146" value="" style="rounded=0;whiteSpace=wrap;html=1;" vertex="1" parent="1">
          <mxGeometry x="170" y="440" width="20" height="40" as="geometry" />
        </mxCell>
        <mxCell id="Si_FbXwoeOljD2cDCgw1-147" value="" style="rounded=0;whiteSpace=wrap;html=1;" vertex="1" parent="1">
          <mxGeometry x="200" y="460" width="20" height="20" as="geometry" />
        </mxCell>
        <mxCell id="Si_FbXwoeOljD2cDCgw1-148" value="x" style="rounded=0;whiteSpace=wrap;html=1;fillColor=#d80073;fontColor=#ffffff;strokeColor=#A50040;fontFamily=Comic Sans MS;" vertex="1" parent="1">
          <mxGeometry x="110" y="360" width="20" height="120" as="geometry" />
        </mxCell>
        <mxCell id="Si_FbXwoeOljD2cDCgw1-150" value="" style="rounded=0;whiteSpace=wrap;html=1;" vertex="1" parent="1">
          <mxGeometry x="300" y="340" width="20" height="100" as="geometry" />
        </mxCell>
        <mxCell id="Si_FbXwoeOljD2cDCgw1-151" value="" style="rounded=0;whiteSpace=wrap;html=1;" vertex="1" parent="1">
          <mxGeometry x="330" y="370" width="20" height="70" as="geometry" />
        </mxCell>
        <mxCell id="Si_FbXwoeOljD2cDCgw1-152" value="" style="rounded=0;whiteSpace=wrap;html=1;" vertex="1" parent="1">
          <mxGeometry x="360" y="400" width="20" height="40" as="geometry" />
        </mxCell>
        <mxCell id="Si_FbXwoeOljD2cDCgw1-153" value="" style="rounded=0;whiteSpace=wrap;html=1;" vertex="1" parent="1">
          <mxGeometry x="390" y="420" width="20" height="20" as="geometry" />
        </mxCell>
        <mxCell id="Si_FbXwoeOljD2cDCgw1-154" value="x" style="rounded=0;whiteSpace=wrap;html=1;fillColor=#d80073;fontColor=#ffffff;strokeColor=#A50040;fontFamily=Comic Sans MS;" vertex="1" parent="1">
          <mxGeometry x="270" y="320" width="20" height="120" as="geometry" />
        </mxCell>
        <mxCell id="Si_FbXwoeOljD2cDCgw1-155" value="显然S可以更长" style="text;html=1;align=center;verticalAlign=middle;resizable=0;points=[];autosize=1;strokeColor=none;fillColor=none;" vertex="1" parent="1">
          <mxGeometry x="360" y="350" width="100" height="30" as="geometry" />
        </mxCell>
        <mxCell id="Si_FbXwoeOljD2cDCgw1-156" value="" style="rounded=0;whiteSpace=wrap;html=1;" vertex="1" parent="1">
          <mxGeometry x="270" y="480" width="20" height="100" as="geometry" />
        </mxCell>
        <mxCell id="Si_FbXwoeOljD2cDCgw1-157" value="" style="rounded=0;whiteSpace=wrap;html=1;" vertex="1" parent="1">
          <mxGeometry x="300" y="510" width="20" height="70" as="geometry" />
        </mxCell>
        <mxCell id="Si_FbXwoeOljD2cDCgw1-158" value="" style="rounded=0;whiteSpace=wrap;html=1;" vertex="1" parent="1">
          <mxGeometry x="330" y="540" width="20" height="40" as="geometry" />
        </mxCell>
        <mxCell id="Si_FbXwoeOljD2cDCgw1-159" value="" style="rounded=0;whiteSpace=wrap;html=1;" vertex="1" parent="1">
          <mxGeometry x="360" y="550" width="20" height="30" as="geometry" />
        </mxCell>
        <mxCell id="Si_FbXwoeOljD2cDCgw1-160" value="x" style="rounded=0;whiteSpace=wrap;html=1;fillColor=#d80073;fontColor=#ffffff;strokeColor=#A50040;fontFamily=Comic Sans MS;" vertex="1" parent="1">
          <mxGeometry x="390" y="560" width="20" height="20" as="geometry" />
        </mxCell>
        <mxCell id="Si_FbXwoeOljD2cDCgw1-161" value="显然S可以更长" style="text;html=1;align=center;verticalAlign=middle;resizable=0;points=[];autosize=1;strokeColor=none;fillColor=none;" vertex="1" parent="1">
          <mxGeometry x="360" y="500" width="100" height="30" as="geometry" />
        </mxCell>
      </root>
    </mxGraphModel>
  </diagram>
</mxfile>
